<svg style="max-height: 500px" xmlns="http://www.w3.org/2000/svg" xml:space="preserve" viewBox="348.8983050847458 0 795.2542372881355 975" width="795.2542372881355" height="975"><rect width="100%" height="100%" fill="transparent"/><path d="M0 0h1254v1254H0z" style="stroke:none;stroke-width:1;stroke-dasharray:none;stroke-linecap:butt;stroke-dashoffset:0;stroke-linejoin:miter;stroke-miterlimit:4;fill:#fdfdfd;fill-rule:nonzero;opacity:1" transform="translate(183.453 -58.533)scale(.8978)"/><path d="M0 0q2.49-.006 4.979-.016C9.524-.03 14.07-.032 18.616-.03c4.908-.002 9.816-.015 14.724-.027 10.723-.022 21.446-.03 32.168-.035Q75.554-.1 85.599-.11q27.818-.032 55.634-.04h10.806l3.616-.001h3.62c19.374-.005 38.748-.031 58.121-.069q29.845-.057 59.69-.058c11.169 0 22.338-.009 33.507-.038q14.259-.037 28.52-.016c4.849.007 9.698.006 14.548-.017q6.661-.03 13.323.003 2.407.006 4.815-.016c8.712-.072 15.755.174 22.919 5.636l2.383 1.738c3.772 3.41 7.155 6.949 10.437 10.829 2.934 3.275 6.054 6.343 9.18 9.433 4.232 4.188 8.318 8.397 12.164 12.945 2.997 3.355 6.232 6.471 9.432 9.632a166 166 0 0 1 9.564 10.365c2.345 2.623 4.836 5.088 7.34 7.558 3.053 3.013 6.04 6.036 8.812 9.313 3.924 4.608 8.264 8.789 12.563 13.043 3.662 3.638 7.151 7.347 10.488 11.289 2.596 2.943 5.415 5.655 8.23 8.386 2.637 2.706 5.097 5.53 7.573 8.381 2.87 3.267 5.849 6.427 8.834 9.588l6 6.376q3.802 4.042 7.594 8.093 3.723 3.974 7.448 7.944l4.06 4.33q3.197 3.411 6.398 6.82l1.959 2.091c3.05 3.247 6.129 6.453 9.29 9.592 2.357 2.34 4.606 4.716 6.75 7.254a123 123 0 0 0 7 7.5c2.352 2.31 4.551 4.678 6.688 7.188 3.109 3.614 6.424 6.965 9.813 10.312 3.964 3.916 7.745 7.895 11.36 12.14 2.427 2.752 5.057 5.287 7.671 7.86 2.518 2.558 4.835 5.262 7.172 7.984 2.54 2.85 5.258 5.502 8 8.157 6.364 6.585 7.09 12.256 7.048 21.12l.01 3.176c.007 3.537 0 7.074-.007 10.61q.003 3.828.01 7.656.009 8.34.001 16.68a15081 15081 0 0 0 .003 24.806q.014 22.15.003 44.301-.007 19.388-.004 38.774v2.596l.003 10.431q.007 48.955-.01 97.909-.014 43.503 0 87.006.017 48.857.01 97.713l-.003 10.416v2.59q-.003 19.373.005 38.746.01 22.029-.006 44.058-.01 12.332.001 24.663.006 9.201-.01 18.402-.003 3.727.004 7.455.007 5.057-.01 10.114l.015 2.94c-.031 5.572-.688 10.348-2.266 15.697h-2l-.317 1.758c-2.147 7.044-9.033 11.468-15.058 15.016-6.742 3.15-12.708 3.514-20.048 3.48l-3.156.01c-3.502.009-7.004.003-10.505-.003l-7.595.011q-8.265.013-16.53.007-12.29-.006-24.58.009-23.228.02-46.454.014-17.935-.002-35.872.005l-5.152.001-7.764.003a138983 138983 0 0 1-74.943.008l-13.796-.002-8.31-.002q-43.11-.007-86.221.021a126602 126602 0 0 1-107.183.027h-2.569q-19.197-.002-38.394.016-21.83.018-43.663 0-12.217-.01-24.436.01c-6.08.009-12.161.002-18.242-.01q-3.691-.004-7.383.007c-3.343.01-6.686.002-10.03-.011l-2.899.022c-11.578-.093-19.777-3.442-28.033-11.471-8.85-9.356-10.463-17.504-10.37-30.186q-.007-2.17-.018-4.34c-.016-3.976-.006-7.952.007-11.927.01-4.325-.003-8.65-.013-12.975q-.02-11.37-.004-22.741c.015-11.272.008-22.544-.005-33.816-.02-20.131-.019-40.263-.007-60.394a62493 62493 0 0 0 .007-56.392l-.004-14.224c-.013-44.49-.001-88.978.02-133.468q.028-59.303-.002-118.607c-.021-44.406-.03-88.812-.017-133.217l.004-14.199v-3.531q.006-26.41-.01-52.821-.019-30.028.013-60.056.018-16.81-.003-33.62-.013-11.225.014-22.448c.01-4.266.013-8.53-.002-12.796q-.018-5.823.013-11.646.007-2.091-.009-4.182c-.078-11.46 2.011-20.3 9.405-29.23C-27.284.292-14.78-.026 0 0m-20.096 31.274c-2.15 3.621-2.313 6.546-2.315 10.669l-.009 3.608.005 3.991-.006 4.236q-.007 5.86-.003 11.72 0 6.36-.009 12.721-.01 12.633-.01 25.266c0 10.082-.008 20.165-.014 30.248-.016 24.371-.022 48.743-.027 73.114q-.004 17.284-.01 34.57-.02 59.138-.027 118.275v7.428l-.001 7.445-.001 14.938v3.742q-.007 60.073-.044 120.147-.037 63.474-.04 126.95v17.389a75989 75989 0 0 1-.027 55.27q-.02 27.756-.01 55.513.008 16.505-.015 33.01-.014 11.013.002 22.026c.005 4.188.006 8.377-.006 12.565q-.018 5.712.004 11.423c.004 2.02-.007 4.04-.02 6.06l.022 3.632v3.122c.583 4.553 2.428 7.845 5.431 11.266 4.32 2.431 8.143 2.206 13.024 2.157l3.118.016c3.471.014 6.942 0 10.413-.016q3.757.006 7.513.017 8.186.017 16.37 0c8.115-.018 16.23-.013 24.344-.003 14.49.018 28.981.012 43.472-.003q19.021-.02 38.043-.015h2.547l10.234.002c32.016.007 64.033-.008 96.05-.034q42.686-.035 85.374-.019l21.86.008h2.719c23.764.008 47.528.002 71.292-.009l7.669-.003 5.088-.003q19.011-.007 38.023 0 21.612.01 43.225-.02 12.103-.018 24.205-.005c6.015.006 12.03-.004 18.045-.02q3.66-.006 7.322.004c3.304.008 6.608-.003 9.912-.018l2.907.02c4.88-.042 8.221-.202 12.174-3.4 3.066-3.504 4.124-6.485 4.127-11.105l.01-2.549-.006-2.806.006-2.989q.007-5.006.003-10.01l.01-7.212q.01-8.901.01-17.803.002-10.657.014-21.315c.016-17.174.022-34.347.027-51.52q.004-12.182.01-24.362.02-41.68.026-83.357l.001-5.235v-5.246l.002-10.527v-2.636q.007-42.332.043-84.665a114025 114025 0 0 0 .04-99.283v-2.441q.004-19.474.027-38.947.022-19.56.01-39.12-.007-11.63.015-23.259.013-8.67-.005-17.34-.003-3.517.01-7.036c.011-3.175.004-6.35-.008-9.525l.023-2.792c-.052-6.264-1.152-9.638-5.638-14.202-3.512-2.188-5.745-2.215-9.87-2.21l-2.136-.014c-2.357-.011-4.713.007-7.07.024q-2.538-.003-5.076-.012-5.466-.012-10.93.008c-5.772.02-11.543.01-17.315-.004-13.306-.029-26.611-.018-39.917-.007-12.173.01-24.345.01-36.518-.02q-8.587-.019-17.176.013c-3.581.01-7.162.002-10.743-.01q-2.47-.003-4.941.014c-17.18.12-30.001-3.092-42.94-15.187-5.594-8.72-8.278-18.1-8.263-28.346l-.009-2.473q-.011-4.106-.01-8.212l-.016-5.884q-.017-6.338-.026-12.677-.018-10.021-.054-20.042c-.062-19-.115-37.998-.149-56.997q-.027-15.736-.088-31.473c-.02-5.553-.036-11.105-.038-16.657q-.004-7.833-.045-15.666-.011-2.874-.006-5.75c.004-2.616-.01-5.232-.03-7.848l.018-2.297c-.06-4.732-.697-8.079-3.41-11.99-4.378-2.672-7.655-3.376-12.749-3.378l-1.99-.014c-2.199-.01-4.397 0-6.595.01q-2.39-.005-4.78-.014c-4.376-.013-8.751-.006-13.127.003-4.72.007-9.44-.004-14.16-.012-9.245-.013-18.491-.01-27.737-.002q-11.27.01-22.54.005l-3.238-.002-6.513-.003c-20.364-.008-40.729.002-61.093.018q-26.22.018-52.437-.003-30.436-.025-60.873-.013l-6.49.003-3.225.001q-11.257.003-22.516-.009-13.717-.013-27.434.01c-4.667.008-9.334.011-14 .001q-6.407-.013-12.813.012-2.32.005-4.64-.006c-2.1-.009-4.2 0-6.3.015l-3.536.001c-4.529.53-7.946 1.978-11.026 5.376" style="stroke:none;stroke-width:1;stroke-dasharray:none;stroke-linecap:butt;stroke-dashoffset:0;stroke-linejoin:miter;stroke-miterlimit:4;fill:#5b5959;fill-rule:nonzero;opacity:1" transform="translate(493.449 84.869)scale(.8978)"/><path d="M0 0c2.49.49 3.643.895 5.3 2.836 2.935 5.913 3.751 12.507 4.876 18.95C14.37 45.405 20.704 70.065 32 91.312q.95 1.898 1.895 3.8C38.133 103.517 43.03 111 49 118.313l1.973 2.543c24.652 29.877 71.31 41.369 107.36 48.379 10.031 2.041 10.031 2.041 13.667 6.077 1.063 2.875 1.063 2.875 1 6-1.762 3.666-2.892 5.558-6.717 7.085-3.4.948-6.774 1.663-10.244 2.31-34.621 6.676-69.613 17.789-97.039 40.606l-1.98 1.464c-30.602 23.787-40.513 73.579-47.674 109.14l-.803 3.892-.687 3.443c-.877 3.137-1.976 5.41-3.856 8.06-2.889 1.445-4.796 1.377-8 1-4.52-3.604-5.97-6.998-6.992-12.519l-.459-2.203q-.483-2.332-.944-4.669c-.811-4.094-1.691-8.173-2.566-12.253l-.522-2.453c-6.08-28.298-16.04-58.94-34.751-81.61C-52 240.314-52 240.314-52 238.314l-1.816-.81c-2.235-1.218-3.44-2.366-5.121-4.253-20.989-21.295-53.014-30.983-81.14-38.183a470 470 0 0 1-7.532-2.012c-5.498-1.515-10.878-2.871-16.516-3.743-4.261-.741-7.045-1.51-9.875-5-1.062-3.437-1.062-3.437-1-7 1.935-3.095 3.292-4.705 6.688-6.117l3.312-.757 1.908-.462a464 464 0 0 1 4.45-1.05c17.489-4.058 34.78-8.412 51.642-14.613l2.234-.811c15.7-5.784 31.38-13.814 43.766-25.19l2.688-2.41C-42.29 110.792-31.828 90.036-25 69.312l.72-2.178c5.553-17.063 9.532-34.599 13.471-52.091l.523-2.253c.433-1.866.85-3.736 1.266-5.606C-7.423 2.688-5.06-.445 0 0" style="stroke:none;stroke-width:1;stroke-dasharray:none;stroke-linecap:butt;stroke-dashoffset:0;stroke-linejoin:miter;stroke-miterlimit:4;fill:#2669c7;fill-rule:nonzero;opacity:1" transform="translate(747.272 357.766)scale(.8978)"/><path d="m0 0 2.882-.012c3.182-.01 6.365-.006 9.548-.002l6.85-.015c6.2-.014 12.4-.014 18.601-.012q7.765 0 15.53-.008C66.32-.061 79.232-.06 92.143-.054q16.806.005 33.612-.025 17.269-.03 34.538-.024c6.46.002 12.92 0 19.38-.015q9.114-.017 18.227.003 3.343.004 6.685-.009c3.045-.01 6.09-.002 9.135.01l2.664-.022c8.006.07 14.81 2.223 21.103 7.397 5.412 7 7.302 13.729 7.267 22.55l.014 2.568c.012 2.833.01 5.665.01 8.498q.008 3.051.02 6.102c.017 5.52.022 11.041.023 16.562q.003 5.177.011 10.353.028 18.07.025 36.137c0 11.219.02 22.438.052 33.656q.039 14.46.035 28.918c0 5.754.006 11.507.027 17.261q.029 8.121.005 16.242-.004 2.974.014 5.947c.123 21.384.123 21.384-6.468 29.678l-1.973 1.59-1.965 1.66c-5.154 3.139-11.612 2.868-17.402 1.887-6.422-1.687-9.396-4.974-12.695-10.61l-1.06-1.65c-1.321-3.3-1.21-6.469-1.18-9.968-.003-.77-.004-1.542-.006-2.336-.003-2.586.008-5.172.019-7.757l-.001-5.559q.002-7.549.025-15.097c.012-5.259.014-10.517.016-15.776.006-9.959.023-19.917.043-29.876.022-11.338.033-22.675.043-34.012q.033-34.985.1-69.968l-3.288.008q-39.61.1-79.22.147c-12.771.016-25.541.037-38.312.071q-16.695.046-33.392.056-8.84.004-17.68.035-8.322.029-16.645.022-3.052 0-6.105.018c-2.783.015-5.564.012-8.347.003l-2.429.027c-6.544-.052-11.691-1.614-17.331-5.075-4.452-4.575-7.017-10.602-7.563-16.937.121-5.994 2.155-10.96 6.149-15.43C-14.954.998-8.898-.038 0 0" style="stroke:none;stroke-width:1;stroke-dasharray:none;stroke-linecap:butt;stroke-dashoffset:0;stroke-linejoin:miter;stroke-miterlimit:4;fill:#2165c4;fill-rule:nonzero;opacity:1" transform="translate(922.81 2.275)scale(.8978)"/><path d="m0 0 2.894-.014c3.197-.012 6.393-.01 9.59-.01q3.44-.008 6.88-.02C25.59-.06 31.817-.065 38.044-.066q7.798-.005 15.597-.016 17.348-.023 34.694-.02h4.205Q109.42-.105 126.3-.149q17.343-.045 34.687-.041c6.489 0 12.976-.006 19.465-.027q9.152-.028 18.305-.005 3.357.004 6.714-.014c3.058-.016 6.115-.007 9.174.009l2.676-.031c7.95.088 14.394 2.95 20.129 8.525 3.85 5.672 6.013 11.094 5 18-2.363 6.878-5.925 11.977-12 16l-1.572 1.058c-3.619 1.405-7.207 1.21-11.034 1.183l-2.658.005c-2.945.003-5.89-.008-8.835-.018h-6.327q-8.596-.001-17.193-.025c-5.987-.012-11.974-.014-17.961-.016-11.34-.006-22.68-.023-34.02-.043-12.91-.022-25.818-.033-38.728-.043q-39.836-.032-79.672-.1l.014 2.91q.166 35.08.245 70.16c.026 11.31.06 22.619.118 33.928q.076 14.789.093 29.576c.007 5.22.022 10.438.058 15.657q.05 7.374.037 14.747.003 2.7.03 5.402c.108 10.528-.084 18.786-7.666 26.81-6.707 4.477-12.363 4.904-20.195 3.364-5.343-1.611-8.88-4.797-11.734-9.555-2.536-5.837-3.437-10.464-3.388-16.79l-.016-2.574c-.015-2.826-.007-5.652 0-8.479l-.021-6.102c-.018-5.513-.017-11.025-.011-16.538q.002-6.91-.01-13.821-.019-16.31 0-32.617c.011-11.204-.003-22.408-.03-33.612q-.032-14.445-.023-28.892.008-8.62-.016-17.241-.021-8.11.008-16.217.005-2.97-.01-5.938c-.107-21.725-.107-21.725 6.954-30.054.846-.7 1.692-1.402 2.563-2.125l2.437-2.187C-12.39.032-6.745-.023 0 0" style="stroke:none;stroke-width:1;stroke-dasharray:none;stroke-linecap:butt;stroke-dashoffset:0;stroke-linejoin:miter;stroke-miterlimit:4;fill:#276ac9;fill-rule:nonzero;opacity:1" transform="translate(376.97 2.27)scale(.8978)"/><path d="M0 0c6.433 2.867 10.444 8.215 13.085 14.64 1.127 4.137 1.199 7.866 1.182 12.132l.014 2.64c.013 2.913.011 5.826.01 8.74q.008 3.136.02 6.273c.018 5.678.022 11.356.024 17.034q.001 5.325.01 10.649.028 18.585.026 37.171c-.002 11.538.02 23.076.051 34.614q.038 14.87.036 29.743c0 5.918.005 11.835.026 17.752q.029 8.354.005 16.708a878 878 0 0 0 .015 6.115c.132 23.775.132 23.775-6.547 30.999-7.558 6.933-13.504 7.94-23.433 7.937l-2.906.011q-4.823.015-9.647.019l-6.914.02q-11.352.028-22.705.041l-7.817.013a36684 36684 0 0 1-32.504.038l-8.427.006-2.115.002c-11.315.008-22.63.033-33.944.066q-17.434.049-34.867.054c-6.523.002-13.046.011-19.57.036q-9.201.035-18.403.018-3.378 0-6.755.02c-3.073.017-6.146.01-9.22-.003l-2.7.033c-6.7-.07-10.825-1.732-15.956-6.197-4.658-5.498-6.625-10.858-6.383-18.215 1.002-6.843 4.198-11.666 9.528-15.918L-245 212l1.576-1.06c3.607-1.399 7.178-1.208 10.991-1.18l2.646-.006c2.932-.003 5.863.008 8.794.019h6.297c5.704-.001 11.408.01 17.113.024 5.959.013 11.918.014 17.877.016q16.93.012 33.86.043c12.85.022 25.698.033 38.547.043q39.65.032 79.299.101l-.011-3.026q-.134-36.442-.196-72.886c-.02-11.749-.049-23.498-.095-35.247q-.06-15.36-.074-30.721c-.006-5.422-.018-10.844-.047-16.267q-.039-7.656-.03-15.313 0-2.809-.024-5.617c-.02-2.56-.015-5.119-.004-7.678l-.035-2.238c.077-6.763 2.527-10.763 6.953-15.757C-14.824-.666-8.79-1.222 0 0" style="stroke:none;stroke-width:1;stroke-dasharray:none;stroke-linecap:butt;stroke-dashoffset:0;stroke-linejoin:miter;stroke-miterlimit:4;fill:#2169cf;fill-rule:nonzero;opacity:1" transform="translate(1129.74 748.598)scale(.8978)"/><path d="M0 0c3.563 1.688 3.563 1.688 6 4l2.688 2.375c4.627 5.253 5.754 9.884 5.673 16.75l.007 2.428c.005 2.676-.011 5.352-.027 8.028v5.767c.002 5.212-.016 10.424-.037 15.636-.019 5.45-.02 10.899-.024 16.348-.01 10.317-.034 20.633-.064 30.95-.034 11.746-.05 23.492-.065 35.238Q14.102 173.76 14 210l3.301-.017q39.774-.2 79.548-.294c12.823-.03 25.646-.073 38.469-.142q16.766-.09 33.531-.112c5.918-.007 11.835-.026 17.753-.07q8.358-.059 16.716-.044 3.065-.002 6.128-.036c18.66-.2 18.66-.2 25.07 5.182L236 216l2.438 2.5c3.233 5.173 4.467 10.43 3.562 16.5-2.044 6.3-4.974 11.827-10.437 15.75-5.448 2.657-10.98 2.396-16.911 2.39l-2.865.01q-4.755.01-9.509.011l-6.815.015q-9.26.019-18.521.024-5.787.005-11.572.012a39384 39384 0 0 1-34.133.026h-2.076l-4.165.002h-2.087q-16.733.009-33.464.046-17.193.034-34.386.037-9.647 0-19.295.025-9.075.023-18.152.01-3.328-.002-6.655.013c-3.034.013-6.067.007-9.1-.004l-2.646.025c-7.038-.056-14.858-1.161-20.023-6.392-8.813-10.312-7.761-22.967-7.706-35.735q-.008-3.14-.02-6.28c-.019-5.662-.012-11.323 0-16.984.01-5.937.001-11.874-.005-17.81q-.009-14.952.021-29.902c.022-11.51.015-23.018-.007-34.527q-.026-14.848-.01-29.695c.006-5.905.007-11.81-.006-17.714q-.017-8.327.02-16.653.007-3.049-.006-6.098c-.087-22.087-.087-22.087 6.601-30.075l2.055-1.59 2.07-1.66C-12.605-1.403-6.125-.503 0 0" style="stroke:none;stroke-width:1;stroke-dasharray:none;stroke-linecap:butt;stroke-dashoffset:0;stroke-linejoin:miter;stroke-miterlimit:4;fill:#2163c6;fill-rule:nonzero;opacity:1" transform="translate(375.577 748.597)scale(.8978)"/><path d="M0 0q1.659 1.404 3.313 2.813l1.863 1.581A88 88 0 0 1 10 9c-3.52 0-4.438-.703-7-3V4L0 3z" style="stroke:none;stroke-width:1;stroke-dasharray:none;stroke-linecap:butt;stroke-dashoffset:0;stroke-linejoin:miter;stroke-miterlimit:4;fill:#1374fa;fill-rule:nonzero;opacity:1" transform="translate(793.06 467.577)scale(.8978)"/><path d="m0 0 2.188.375-1.75.688C-2.38 2.705-3.894 4.77-5.812 7.375l-2-1C-3.505.467-3.505.467 0 0" style="stroke:none;stroke-width:1;stroke-dasharray:none;stroke-linecap:butt;stroke-dashoffset:0;stroke-linejoin:miter;stroke-miterlimit:4;fill:#2867c1;fill-rule:nonzero;opacity:1" transform="translate(746.206 357.707)scale(.8978)"/></svg>